PathFileType	4	(X/Y/Z)
DataRate	CameraRate	NumFrames	NumMarkers	Units	OrigDataRate	OrigDataStartFrame	OrigNumFrames	
	120.0	120.0	11	39	mm	120.0	104	206
Frame#	Time	midhip	hip_r	hip_l	knee_r	knee_l	ankle_r	ankle_l	midasis	asis_r	asis_l	psis_r	psis_l	epicondLat_r	epicondLat_l	epicondMed_r	epicondMed_l	malleolusLat_r	malleolusLat_l	malleolusMedv_r	malleolusMedv_l	heel_r	heel_l	sternalnotch	xyphoidprocess	neck	subclavicle_r	subclavicle_l	toe_r	toe_l	thighwand_r	thighwand_l	upperleg1_r	upperleg1_l	upperleg2_r	upperleg2_l	shankwand_r	shankwand_l	lowerleg1_r	lowerleg1_l
	X1	Y1	Z1	X2	Y2	Z2	X3	Y3	Z3	X4	Y4	Z4	X5	Y5	Z5	X6	Y6	Z6	X7	Y7	Z7	X8	Y8	Z8	X9	Y9	Z9	X10	Y10	Z10	X11	Y11	Z11	X12	Y12	Z12	X13	Y13	Z13	X14	Y14	Z14	X15	Y15	Z15	X16	Y16	Z16	X17	Y17	Z17	X18	Y18	Z18	X19	Y19	Z19	X20	Y20	Z20	X21	Y21	Z21	X22	Y22	Z22	X23	Y23	Z23	X24	Y24	Z24	X25	Y25	Z25	X26	Y26	Z26	X27	Y27	Z27	X28	Y28	Z28	X29	Y29	Z29	X30	Y30	Z30	X31	Y31	Z31	X32	Y32	Z32	X33	Y33	Z33	X34	Y34	Z34	X35	Y35	Z35	X36	Y36	Z36	X37	Y37	Z37	X38	Y38	Z38	X39	Y39	Z39

	104	0.86667	1427.571	822.532	-270.186	1424.005	811.171	-194.294	1416.663	814.839	-346.200	1430.617	436.774	-160.291	1426.801	436.742	-388.221	1415.858	64.733	-125.820	1397.597	67.551	-422.905	1516.164	882.556	-270.088	1517.982	879.782	-152.154	1514.346	885.330	-388.022	1323.309	951.115	-233.565	1319.031	948.571	-288.084	1432.350	442.228	-100.565	1431.822	443.480	-447.629	1431.996	434.396	-217.925	1438.558	442.111	-323.992	1395.920	68.927	-89.093	1383.069	72.375	-462.016	1429.912	67.845	-156.398	1404.689	74.864	-394.665	1376.060	33.550	-157.430	1347.017	47.338	-411.754	1508.898	1321.756	-267.947	1551.928	1254.281	-271.902	1388.256	1380.754	-259.860	1515.277	1327.007	-215.715	1509.196	1323.321	-321.870	1508.426	40.790	-67.363	1500.913	43.772	-457.423	1586.551	575.097	-184.998	1464.826	582.612	-518.907	1519.926	630.673	-134.224	1404.708	627.914	-455.906	1508.908	543.777	-127.558	1414.675	538.616	-451.105	1382.653	151.446	-28.857	1493.542	188.740	-406.471	1390.542	157.325	-72.337	1452.348	188.419	-412.800
	105	0.87500	1427.072	821.909	-269.258	1423.975	811.120	-194.362	1416.683	814.880	-346.268	1430.548	436.786	-160.268	1426.723	436.706	-388.260	1415.811	64.756	-125.836	1397.479	67.562	-422.946	1516.121	882.603	-270.080	1517.900	879.756	-152.187	1514.342	885.450	-387.972	1323.203	951.036	-233.464	1319.228	948.424	-287.957	1432.304	442.257	-100.544	1431.770	443.437	-447.667	1432.294	434.111	-217.605	1438.687	442.222	-323.927	1395.887	68.945	-89.101	1382.965	72.387	-462.062	1429.859	67.930	-156.409	1404.569	74.919	-394.684	1376.036	33.563	-157.383	1346.447	47.735	-411.608	1508.703	1321.812	-268.056	1551.757	1254.357	-272.085	1387.861	1380.843	-259.847	1515.081	1327.010	-215.716	1508.999	1323.436	-322.079	1508.378	40.794	-67.385	1500.955	43.724	-457.414	1586.475	575.125	-184.970	1464.759	582.617	-518.926	1519.850	630.708	-134.205	1404.621	627.934	-455.946	1509.053	543.740	-127.441	1414.678	538.605	-451.091	1382.614	151.453	-28.871	1493.581	188.741	-406.442	1390.479	157.412	-72.307	1452.215	188.528	-412.778
	106	0.88333	1426.585	821.309	-268.276	1423.946	811.083	-194.424	1416.698	814.907	-346.330	1430.426	436.803	-160.194	1426.667	436.693	-388.288	1415.720	64.788	-125.874	1397.391	67.576	-423.001	1516.078	882.647	-270.082	1517.822	879.751	-152.230	1514.334	885.544	-387.935	1323.096	950.973	-233.356	1319.426	948.275	-287.816	1432.255	442.297	-100.474	1431.725	443.416	-447.695	1432.421	433.977	-217.434	1436.715	442.051	-324.031	1395.840	68.965	-89.114	1382.885	72.406	-462.120	1429.837	67.959	-156.412	1404.417	74.980	-394.711	1376.028	33.590	-157.347	1346.114	48.007	-411.523	1508.346	1321.892	-268.176	1551.368	1254.421	-272.277	1387.803	1380.854	-259.776	1514.791	1327.071	-215.779	1508.578	1323.532	-322.261	1508.334	40.823	-67.401	1500.998	43.690	-457.412	1586.399	575.180	-184.909	1464.549	582.579	-519.032	1519.837	630.704	-134.177	1404.530	627.962	-455.986	1509.133	543.715	-127.370	1413.803	538.894	-451.191	1382.563	151.444	-28.876	1493.638	188.725	-406.423	1390.443	157.404	-72.292	1452.212	188.540	-412.825
	107	0.89167	1426.435	820.988	-267.326	1423.904	811.061	-194.461	1416.677	814.900	-346.368	1430.280	436.817	-160.095	1426.644	436.702	-388.308	1415.622	64.827	-125.921	1397.370	67.579	-423.020	1516.020	882.669	-270.097	1517.748	879.760	-152.275	1514.293	885.579	-387.919	1323.009	950.925	-233.279	1319.626	948.115	-287.681	1432.207	442.333	-100.381	1431.696	443.423	-447.716	1432.347	434.015	-217.375	1432.568	441.809	-324.118	1395.802	68.989	-89.126	1382.859	72.408	-462.137	1429.815	68.074	-156.424	1404.460	74.971	-394.725	1376.033	33.615	-157.333	1346.072	48.096	-411.510	1507.999	1321.816	-268.316	1550.975	1254.313	-272.368	1387.774	1380.741	-259.860	1514.545	1327.092	-215.855	1508.131	1323.353	-322.491	1508.296	40.877	-67.408	1501.032	43.672	-457.417	1586.330	575.262	-184.838	1464.234	582.504	-519.203	1519.812	630.768	-134.172	1404.397	627.964	-456.034	1509.071	543.736	-127.331	1412.034	539.570	-451.326	1382.511	151.424	-28.864	1493.695	188.698	-406.415	1390.384	157.337	-72.166	1452.220	188.604	-412.759
	108	0.90000	1426.440	820.796	-266.500	1423.842	811.049	-194.458	1416.595	814.840	-346.365	1430.164	436.830	-160.026	1426.649	436.717	-388.327	1415.573	64.874	-125.949	1397.419	67.553	-422.975	1515.936	882.650	-270.128	1517.679	879.778	-152.328	1514.193	885.522	-387.928	1322.961	950.880	-233.239	1319.804	947.946	-287.551	1432.161	442.358	-100.315	1431.684	443.444	-447.736	1431.951	433.916	-216.899	1430.756	441.816	-324.110	1395.796	69.023	-89.130	1382.896	72.374	-462.088	1429.882	68.074	-156.402	1404.606	74.857	-394.722	1376.044	33.622	-157.342	1346.277	48.011	-411.546	1507.821	1321.657	-268.463	1550.850	1254.184	-272.453	1387.508	1380.520	-259.962	1514.359	1326.985	-215.973	1507.954	1323.146	-322.672	1508.269	40.937	-67.419	1501.050	43.666	-457.422	1586.262	575.353	-184.779	1463.909	582.393	-519.378	1519.704	630.879	-134.250	1404.306	627.959	-456.064	1508.789	543.680	-127.134	1411.141	539.957	-451.361	1382.478	151.399	-28.830	1493.736	188.668	-406.421	1390.407	157.270	-72.157	1452.111	188.584	-412.684
	109	0.90833	1426.522	820.713	-265.991	1423.758	811.041	-194.430	1416.464	814.747	-346.338	1430.091	436.840	-160.003	1426.676	436.727	-388.353	1415.592	64.929	-125.953	1397.527	67.500	-422.877	1515.828	882.599	-270.168	1517.606	879.793	-152.389	1514.050	885.405	-387.948	1322.949	950.836	-233.227	1319.894	947.796	-287.436	1432.118	442.368	-100.293	1431.687	443.465	-447.763	1431.402	433.844	-216.357	1431.148	441.812	-324.188	1395.831	69.071	-89.124	1382.988	72.304	-461.986	1430.057	67.913	-156.335	1404.663	74.764	-394.657	1376.052	33.617	-157.355	1346.740	47.743	-411.629	1507.644	1321.615	-268.610	1550.739	1254.186	-272.634	1387.331	1380.341	-259.988	1514.106	1326.876	-216.179	1507.851	1323.178	-322.743	1508.265	40.980	-67.417	1501.047	43.679	-457.424	1586.196	575.428	-184.744	1463.634	582.257	-519.517	1519.727	630.887	-134.257	1404.301	627.965	-456.066	1508.564	543.528	-126.900	1411.128	539.935	-451.378	1382.475	151.378	-28.773	1493.754	188.647	-406.434	1390.542	157.250	-72.323	1452.122	188.402	-412.744
	110	0.91667	1426.712	820.789	-265.805	1423.659	811.031	-194.413	1416.332	814.662	-346.321	1430.061	436.846	-160.019	1426.727	436.732	-388.380	1415.660	64.978	-125.937	1397.675	67.435	-422.761	1515.716	882.547	-270.208	1517.521	879.801	-152.455	1513.912	885.294	-387.962	1322.958	950.807	-233.240	1319.880	947.677	-287.354	1432.080	442.369	-100.308	1431.701	443.480	-447.791	1431.061	433.959	-216.148	1431.181	441.786	-324.245	1395.894	69.118	-89.111	1383.111	72.221	-461.863	1430.058	67.940	-156.352	1404.613	74.850	-394.498	1376.050	33.607	-157.354	1347.383	47.359	-411.761	1507.472	1321.627	-268.757	1550.561	1254.196	-272.808	1387.213	1380.342	-260.122	1513.876	1326.829	-216.397	1507.738	1323.251	-322.803	1508.296	40.994	-67.386	1501.020	43.711	-457.426	1586.143	575.471	-184.740	1463.441	582.127	-519.596	1519.899	630.887	-134.142	1404.180	627.940	-456.097	1508.571	543.396	-126.784	1411.015	539.902	-451.414	1382.506	151.366	-28.708	1493.756	188.599	-406.441	1390.545	157.311	-72.372	1452.269	188.338	-412.851
	111	0.92500	1427.071	821.030	-265.732	1423.570	811.018	-194.416	1416.238	814.596	-346.325	1430.050	436.847	-160.048	1426.789	436.727	-388.395	1415.736	65.002	-125.913	1397.809	67.387	-422.678	1515.623	882.510	-270.238	1517.431	879.804	-152.509	1513.816	885.215	-387.968	1322.980	950.794	-233.287	1319.825	947.557	-287.296	1432.047	442.366	-100.336	1431.715	443.480	-447.810	1431.186	433.757	-215.983	1430.832	442.058	-324.025	1395.956	69.144	-89.094	1383.213	72.161	-461.770	1429.878	68.196	-156.454	1404.452	75.079	-394.315	1376.042	33.590	-157.347	1347.950	47.003	-411.883	1507.325	1321.656	-268.900	1550.422	1254.232	-273.002	1386.979	1380.397	-260.125	1513.688	1326.792	-216.626	1507.635	1323.346	-322.849	1508.358	40.978	-67.338	1500.978	43.751	-457.431	1586.109	575.493	-184.755	1463.351	582.031	-519.612	1519.872	630.846	-134.196	1403.940	627.913	-456.312	1508.635	543.347	-126.756	1410.828	539.902	-451.435	1382.574	151.350	-28.656	1493.765	188.461	-406.432	1390.411	157.352	-72.188	1452.298	188.477	-412.927
	112	0.93333	1427.436	821.267	-265.612	1423.506	810.992	-194.441	1416.199	814.556	-346.351	1430.021	436.837	-160.058	1426.836	436.720	-388.403	1415.786	65.003	-125.895	1397.886	67.375	-422.653	1515.562	882.491	-270.254	1517.349	879.796	-152.541	1513.775	885.185	-387.966	1323.003	950.790	-233.353	1319.782	947.426	-287.251	1432.011	442.359	-100.345	1431.720	443.470	-447.822	1431.533	433.332	-215.813	1430.330	442.573	-323.612	1396.002	69.143	-89.079	1383.262	72.146	-461.735	1429.704	68.310	-156.543	1404.372	75.184	-394.230	1376.030	33.558	-157.342	1348.260	46.778	-411.947	1507.164	1321.739	-268.951	1550.328	1254.362	-273.113	1386.760	1380.362	-259.894	1513.527	1326.839	-216.746	1507.466	1323.474	-322.826	1508.422	40.935	-67.288	1500.937	43.786	-457.436	1586.089	575.510	-184.774	1463.353	581.992	-519.581	1519.769	630.678	-134.431	1403.791	627.901	-456.654	1508.726	543.394	-126.809	1410.680	539.982	-451.439	1382.653	151.334	-28.625	1493.784	188.264	-406.417	1390.324	157.396	-72.125	1452.360	188.538	-412.920
	113	0.94167	1427.561	821.308	-265.418	1423.460	810.950	-194.500	1416.206	814.563	-346.411	1429.945	436.817	-160.028	1426.853	436.722	-388.403	1415.789	64.990	-125.897	1397.918	67.401	-422.681	1515.528	882.493	-270.256	1517.274	879.761	-152.559	1513.782	885.226	-387.954	1323.015	950.792	-233.403	1319.758	947.307	-287.223	1431.967	442.354	-100.319	1431.710	443.463	-447.825	1431.683	433.119	-215.637	1430.014	442.548	-323.603	1396.023	69.123	-89.070	1383.276	72.175	-461.755	1429.519	68.212	-156.632	1404.043	75.235	-394.225	1376.015	33.531	-157.329	1348.357	46.700	-411.992	1507.023	1321.781	-268.856	1550.202	1254.413	-273.003	1386.668	1380.346	-259.892	1513.404	1326.908	-216.722	1507.304	1323.491	-322.665	1508.468	40.879	-67.243	1500.907	43.810	-457.442	1586.073	575.525	-184.778	1463.429	582.042	-519.494	1519.793	630.555	-134.540	1403.794	627.867	-456.642	1508.834	543.440	-126.812	1410.618	540.051	-451.442	1382.706	151.326	-28.622	1493.812	188.064	-406.400	1390.253	157.451	-72.292	1452.511	188.198	-413.155
	114	0.95000	1427.733	821.406	-265.217	1423.407	810.893	-194.609	1416.245	814.627	-346.522	1429.801	436.789	-159.932	1426.842	436.745	-388.391	1415.720	64.981	-125.933	1397.940	67.454	-422.729	1515.507	882.515	-270.252	1517.183	879.687	-152.573	1513.832	885.342	-387.930	1323.014	950.802	-233.428	1319.761	947.223	-287.216	1431.916	442.359	-100.229	1431.680	443.465	-447.817	1431.701	432.972	-215.314	1430.094	441.929	-324.039	1396.010	69.098	-89.074	1383.287	72.234	-461.798	1429.375	68.143	-156.700	1403.301	75.487	-394.196	1376.006	33.528	-157.312	1348.434	46.676	-412.063	1506.881	1321.748	-268.772	1550.024	1254.354	-272.872	1386.614	1380.349	-260.017	1513.268	1326.910	-216.710	1507.160	1323.418	-322.517	1508.497	40.841	-67.204	1500.893	43.819	-457.445	1586.049	575.552	-184.750	1463.532	582.203	-519.352	1519.793	630.555	-134.540	1403.840	627.854	-456.247	1508.874	543.431	-126.689	1410.680	539.982	-451.439	1382.714	151.327	-28.653	1493.851	187.882	-406.379	1390.176	157.434	-72.388	1452.583	187.732	-413.690
